#!OML:ASF F:\VICON\USERDATA\INSTALL\rory3\rory3.ASF
:FULLY-SPECIFIED
:DEGREES
12
root 0.06371900000000008 16.7363 -10.271599999999978 1.6473400000000022 2.411280000000004 1.3061799999999943
lfemur -18.253200000000003 1.4771699999999979 -26.690700000000003
ltibia 52.971599999999995
lfoot -28.798900000000017 2.2654799999999824
ltoes -3.457829999999997
rfemur -26.76500000000001 -2.028050000000003 19.914700000000007
rtibia 97.67380000000003
rfoot 1.927870000000001 -6.898970000000002
rtoes 12.153500000000033
lowerback -8.881784189112644e-10 1.9446300000000005 -3.752689999999996
upperback 0.35724699999999976 1.8155900000000003 -0.475390000000002
thorax -9.032449999999999 1.021209999999999 1.17808
lowerneck -18.9127 -5.251390000000002 -2.45061
upperneck 13.2662 -7.573189999999997 6.187049999999998
head 7.52001 -3.15256 1.5223300000000006
lclavicle -7.255639999999993e-15 9.939230000000004e-16
lhumerus -40.00729999999999 -22.04670000000001 101.204
lradius 109.515
lwrist 28.067500000000003
lhand -25.1655 6.433269999999993
lfingers 7.12502
lthumb 1.3517300000000008 36.40870000000001
rclavicle -7.255639999999993e-15 9.939230000000004e-16
rhumerus -46.4221 4.389530000000006 -97.8626
rradius 93.6625
rwrist -18.5622
rhand -19.8608 -8.881784189112644e-10
rfingers 7.12502
rthumb 6.474179999999998 7.525099999999999
13
root 0.09498399999999996 16.8518 -8.562669999999986 2.369810000000002 2.002799999999998 1.8924000000000059
lfemur -10.78159999999999 1.061620000000003 -27.387399999999992
ltibia 49.28
lfoot -26.492000000000008 3.9650200000000293
ltoes -12.154100000000003
rfemur -36.79879999999997 -3.3312600000000057 19.57509999999999
rtibia 96.54379999999995
rfoot -1.6503000000000008 -6.656760000000001
rtoes 7.712580000000015
lowerback -8.881784189112644e-10 1.0489900000000003 -4.733290000000016
upperback 0.02852360000000087 0.45218999999999965 -0.11988500000000313
thorax -9.47899 0.43550599999999956 2.447759999999996
lowerneck -18.3091 -4.68513 -2.66365
upperneck 12.172499999999996 -6.60496 5.723019999999995
head 7.003860000000001 -2.781669999999999 1.5422099999999992
lclavicle -1.70830999999999e-15 -2.286020000000002e-15
lhumerus -35.116999999999976 -20.9337 99.9245
lradius 112.082
lwrist 27.86080000000001
lhand -25.5135 3.1669599999999996
lfingers 7.12502
lthumb 1.0156499999999997 33.1443
rclavicle -1.70830999999999e-15 -2.286020000000002e-15
rhumerus -51.61480000000001 5.887620000000006 -98.1377
rradius 96.65819999999998
rwrist -20.894899999999996
rhand -18.8442 -8.881784189112644e-10
rfingers 7.12502
rthumb 7.45557 8.21586
14
root 0.12013000000000007 17.291 -6.686610000000027 3.17822 1.0707700000000009 1.6255899999999925
lfemur -2.0649000000000264 0.48799799999999927 -26.86670000000001
ltibia 42.352500000000006
lfoot -18.802000000000024 -0.1394539999999953
ltoes -20.76349999999998
rfemur -42.48660000000005 -2.5839199999999956 20.924699999999994
rtibia 87.30899999999994
rfoot -4.132020000000008 -6.729600000000001
rtoes -1.0389699999999988
lowerback -8.881784189112644e-10 0.07952069999999978 -4.920260000000004
upperback -0.20129300000000055 -0.7659580000000015 0.48990899999999793
thorax -9.105620000000002 -0.12760099999999974 3.503879999999995
lowerneck -18.4595 -3.97157 -2.47344
upperneck 11.989700000000001 -5.54867 4.980530000000002
head 6.89293 -2.3346 1.3940299999999997
lclavicle 1.4014300000000026e-14 1.36664e-15
lhumerus -32.197199999999995 -18.329399999999993 98.1673
lradius 115.219
lwrist 32.6646
lhand -26.2442 2.745870000000001
lfingers 7.12502
lthumb 0.30989500000000053 32.7254
rclavicle 1.4014300000000026e-14 1.36664e-15
rhumerus -55.93199999999999 7.375360000000001 -98.3474
rradius 99.2038
rwrist -21.1518
rhand -18.0584 -8.881784189112644e-10
rfingers 7.12502
rthumb 8.21399 8.43589
15
root 0.152175 17.7221 -4.734329999999995 3.6934699999999996 -1.4503599999999977 0.6004359999999969
lfemur 5.810959999999975 1.872540000000002 -25.766400000000008
ltibia 35.419299999999986
lfoot -4.917630000000015 -6.856669999999996
ltoes -26.760600000000032
rfemur -44.57880000000003 0.2781680000000031 22.708600000000015
rtibia 73.19300000000001
rfoot -5.792270000000007 -5.32258
rtoes -3.3254599999999988
lowerback -8.881784189112644e-10 -0.18465499999999968 -4.05512
upperback -0.34555599999999953 -0.8570480000000031 1.1032000000000002
thorax -8.64402 -0.20631700000000175 3.6764499999999933
lowerneck -19.8702 -3.6323200000000004 -2.1739099999999993
upperneck 13.2263 -5.050629999999999 4.09932
head 7.47979 -2.1238099999999998 1.0928999999999998
lclavicle -1.2399200000000002e-14 1.9878500000000005e-15
lhumerus -31.154400000000013 -16.133 96.4454
lradius 116.539
lwrist 33.5224
lhand -26.1183 2.242460000000003
lfingers 7.12502
lthumb 0.4314759999999995 32.2218
rclavicle -1.2399200000000002e-14 1.9878500000000005e-15
rhumerus -59.60239999999998 7.031410000000002 -97.9052
rradius 101.415
rwrist -20.6925
rhand -17.5771 -8.881784189112644e-10
rfingers 7.12502
rthumb 8.678500000000001 8.52082
16
root 0.1965619999999999 18.1055 -2.7111699999999797 3.86547 -3.8719500000000093 0.13554200000000116
lfemur 12.82729999999997 1.2926299999999977 -26.104000000000006
ltibia 27.568300000000033
lfoot 15.695299999999982 -11.667099999999998
ltoes -23.336599999999997
rfemur -43.11019999999996 2.5159500000000015 23.6315
rtibia 55.411
rfoot -4.547899999999999 -2.9536599999999957
rtoes -9.123299999999986
lowerback -8.881784189112644e-10 -0.4885670000000012 -3.3466899999999953
upperback -0.523905 -1.0667899999999964 1.52355
thorax -8.15332 -0.3392709999999991 3.744380000000005
lowerneck -19.2661 -3.155769999999998 -2.19365
upperneck 13.2444 -4.28266 3.39765
head 7.34154 -1.834769999999999 0.9665899999999997
lclavicle -6.385960000000021e-15 5.764759999999999e-15
lhumerus -31.622099999999953 -14.097699999999996 94.7384
lradius 116.44300000000001
lwrist 32.1257
lhand -25.8875 2.1151499999999976
lfingers 7.12502
lthumb 0.6543619999999999 32.0939
rclavicle -6.385960000000021e-15 5.764759999999999e-15
rhumerus -61.95570000000002 6.856999999999998 -97.2834
rradius 102.455
rwrist -19.8357
rhand -19.0354 -8.881784189112644e-10
rfingers 7.12502
rthumb 7.27098 8.04474
17
root 0.250874 18.3969 -0.6818470000000012 5.272959999999996 -3.105809999999995 -0.06482070000000184
lfemur 15.859399999999946 -3.134410000000002 -26.993299999999994
ltibia 25.287099999999953
lfoot 27.40530000000003 -17.136500000000005
ltoes -15.974300000000007
rfemur -40.87150000000005 1.3807399999999994 24.619100000000007
rtibia 37.2573
rfoot -2.274929999999996 -1.6643700000000017
rtoes -14.268399999999982
lowerback -8.881784189112644e-10 -1.5433700000000026 -1.8932800000000065
upperback -1.1082299999999992 -2.191209999999998 1.7597400000000007
thorax -7.530939999999999 -0.950014 3.324499999999996
lowerneck -18.7844 -2.962299999999999 -2.2498900000000006
upperneck 13.2211 -3.9434499999999977 3.0052499999999998
head 7.2351 -1.719060000000001 0.8929070000000001
lclavicle 3.6029700000000066e-14 4.373259999999997e-15
lhumerus -32.89150000000004 -13.816199999999998 93.6802
lradius 115.50200000000001
lwrist 32.1613
lhand -26.1653 1.8795199999999985
lfingers 7.12502
lthumb 0.3860519999999997 31.8589
rclavicle 3.6029700000000066e-14 4.373259999999997e-15
rhumerus -63.86830000000005 5.91483 -96.4205
rradius 104.269
rwrist -19.2217
rhand -17.983 -8.881784189112644e-10
rfingers 7.12502
rthumb 8.286730000000002 9.15551
18
root 0.251306 18.3952 1.2305400000000137 5.262039999999995 -3.4915399999999974 1.3109299999999962
lfemur 16.048099999999963 -4.45 -29.065500000000007
ltibia 30.81309999999997
lfoot 28.367999999999967 -21.24309999999999
ltoes -15.60450000000001
rfemur -38.81139999999997 -0.7345270000000013 25.225899999999992
rtibia 27.22049999999994
rfoot -1.1426799999999995 -4.850529999999998
rtoes -17.93990000000003
lowerback -8.881784189112644e-10 -1.6073899999999992 -2.976240000000005
upperback -0.8885609999999995 -2.438260000000004 1.4964799999999996
thorax -7.047059999999998 -1.0476300000000007 3.6764400000000026
lowerneck -19.4266 -3.0917099999999995 -2.2010500000000004
upperneck 13.4159 -4.073389999999998 2.7162700000000006
head 7.40237 -1.7980899999999993 0.766417
lclavicle 1.222530000000001e-14 -5.963540000000007e-15
lhumerus -33.73639999999997 -14.429 93.21619999999999
lradius 114.209
lwrist 32.3101
lhand -25.8449 1.7500999999999989
lfingers 7.12502
lthumb 0.695583 31.728699999999996
rclavicle 1.222530000000001e-14 -5.963540000000007e-15
rhumerus -63.30749999999999 4.794699999999999 -95.9323
rradius 105.375
rwrist -17.7646
rhand -18.0634 -8.881784189112644e-10
rfingers 7.12502
rthumb 8.209140000000001 9.427219999999998
19
root 0.27031 18.2199 3.1206800000000117 4.298820000000001 -3.1352000000000024 2.0059699999999987
lfemur 14.09279999999997 -5.450999999999995 -29.63819999999999
ltibia 41.02860000000001
lfoot 27.466600000000025 -23.471499999999985
ltoes -15.207100000000011
rfemur -37.89369999999997 -3.195079999999999 26.244400000000002
rtibia 29.420800000000007
rfoot 0.9517900000000004 -4.92688
rtoes -21.706600000000023
lowerback -8.881784189112644e-10 -1.562259999999998 -2.7999500000000035
upperback -0.909162 -2.4025600000000056 1.24098
thorax -7.781819999999999 -1.022009999999999 3.353789999999997
lowerneck -18.7644 -3.3815999999999997 -2.6978299999999997
upperneck 13.007 -4.360110000000001 2.8531300000000006
head 7.17853 -1.9576799999999994 0.867243
lclavicle 2.3854199999999977e-14 -1.5107599999999998e-14
lhumerus -35.425100000000015 -15.214400000000003 93.7748
lradius 111.569
lwrist 31.8053
lhand -25.8196 2.495770000000001
lfingers 7.12502
lthumb 0.719995 32.4743
rclavicle 2.3854199999999977e-14 -1.5107599999999998e-14
rhumerus -62.37400000000001 3.3601999999999883 -95.666
rradius 105.303
rwrist -17.1528
rhand -18.085599999999996 -8.881784189112644e-10
rfingers 7.12502
rthumb 8.187760000000003 9.41487
20
root 0.28362000000000004 17.865 4.97112999999999 2.736800000000001 -3.7372900000000064 1.3323199999999955
lfemur 9.922659999999967 -3.4562900000000063 -27.561600000000002
ltibia 54.7093
lfoot 28.37870000000004 -21.23419999999998
ltoes 1.6743099999999789
rfemur -35.88360000000003 -2.9740600000000033 27.2098
rtibia 36.63060000000001
rfoot -0.18818799999999963 1.9262300000000039
rtoes 2.5620199999999973
lowerback -8.881784189112644e-10 -1.244169999999999 -1.9332099999999968
upperback -0.22559199999999946 -1.8484799999999912 1.4528699999999997
thorax -7.858280000000001 -0.7884800000000011 3.017330000000006
lowerneck -18.9097 -3.298579999999999 -2.61181
upperneck 13.119200000000001 -4.19675 2.4385599999999985
head 7.22309 -1.9123200000000005 0.7345719999999998
lclavicle -2.9817700000000193e-15 1.669790000000001e-14
lhumerus -37.23879999999997 -14.3684 94.3975
lradius 108.631
lwrist 31.8953
lhand -26.4833 1.317789999999996
lfingers 7.12502
lthumb 0.07893969999999928 31.297500000000007
rclavicle -2.9817700000000193e-15 1.669790000000001e-14
rhumerus -58.757699999999986 4.10339 -96.0225
rradius 103.764
rwrist -17.514200000000002
rhand -19.2573 -8.881784189112644e-10
rfingers 7.12502
rthumb 7.056770000000001 9.501010000000003
